<svg xmlns="http://www.w3.org/2000/svg" version="1.1" xmlns:xlink="http://www.w3.org/1999/xlink" xmlns:svgjs="http://svgjs.dev/svgjs" width="60" height="60" viewBox="0 0 2000 2000"><g transform="matrix(1,0,0,1,-0.9999999999998863,-0.9999999999996589)"><svg viewBox="0 0 280 280" data-background-color="#ffffff" preserveAspectRatio="xMidYMid meet" height="2000" width="2000" xmlns="http://www.w3.org/2000/svg" xmlns:xlink="http://www.w3.org/1999/xlink"><g id="tight-bounds" transform="matrix(1,0,0,1,0.13999999999998636,0.13999999999995794)"><svg viewBox="0 0 279.72 279.72" height="279.72" width="279.72"><g><svg viewBox="0 0 279.72 279.72" height="279.72" width="279.72"><g><svg viewBox="0 0 279.72 279.72" height="279.72" width="279.72"><g id="textblocktransform"><svg viewBox="0 0 279.72 279.72" height="279.72" width="279.72" id="textblock"><g><svg viewBox="0 0 279.72 279.72" height="279.72" width="279.72"><g transform="matrix(1,0,0,1,57.446704652707865,57.446704652707865)"><svg viewBox="0 0 164.8265906945843 164.8265906945843" height="164.8265906945843" width="164.8265906945843"><g id="icon-0"><circle r="82" cx="82.41329534729215" cy="82.41329534729215" fill="#010c80" data-fill-palette-color="accent"></circle><svg xmlns="http://www.w3.org/2000/svg" xmlns:xlink="http://www.w3.org/1999/xlink" version="1.1" x="24.72398860418764" y="24.723988604187646" viewBox="7.106 0.00023324809179322317 85.7870000533022 99.99976675190821" enable-background="new 0 0 100 100" xml:space="preserve" height="115.378613486209" width="115.378613486209" class="icon-jxe-0" data-fill-palette-color="quaternary" id="jxe-0"><path d="M74.519 0.011C73.995 0.011 73.737 0.009 73.477 0.006 72.929 0.002 72.388-0.005 69.505 0.011 62.414 0.051 58.099 2.459 54.948 4.217 52.96 5.326 51.523 6.128 49.981 6.128 48.476 6.128 47.04 5.327 45.052 4.217 41.901 2.459 37.586 0.051 30.495 0.011 27.611-0.006 27.07 0.001 26.523 0.006 26.263 0.009 26.005 0.011 25.481 0.011 21.176 0.011 7.106 5.758 7.106 13.495V31.469C7.106 40.869 11.025 47.423 13.888 52.209 15.078 54.199 16.106 55.919 16.437 57.188 16.685 58.138 16.954 60.744 17.267 63.761 19.167 82.098 21.868 100 31.981 100 38.368 100 43.564 89.826 43.564 77.32 43.564 70.911 45.919 70.125 46.942 69.933H53.055C54.078 70.124 56.435 70.911 56.435 77.321 56.435 89.826 61.631 100 68.018 100 78.131 100 80.832 82.098 82.733 63.762 83.046 60.744 83.315 58.139 83.562 57.189 83.893 55.919 84.92 54.201 86.111 52.21 88.973 47.424 92.893 40.87 92.893 31.469V13.495C92.894 5.758 78.824 0.011 74.519 0.011M26.574 5.006C27.106 5 27.662 4.995 30.467 5.011 36.272 5.044 39.642 6.924 42.615 8.583 44.96 9.891 47.176 11.127 50.018 11.127 52.824 11.127 55.039 9.891 57.383 8.583 60.357 6.924 63.727 5.043 69.532 5.011 72.336 4.995 72.892 5 73.425 5.006 73.697 5.008 73.968 5.011 74.518 5.011 75.383 5.011 76.762 5.383 78.309 5.99 78.022 19.302 65.438 30.055 50 30.055S21.977 19.302 21.69 5.991C23.237 5.384 24.616 5.012 25.482 5.012 26.031 5.011 26.301 5.008 26.574 5.006M87.894 31.469C87.894 39.489 84.527 45.119 81.821 49.644 80.433 51.964 79.235 53.968 78.724 55.929 78.381 57.247 78.12 59.764 77.76 63.246 76.86 71.931 74.47 95 68.019 95 66.109 95 61.436 88.805 61.436 77.321 61.436 68.148 57.211 65.539 53.667 64.966L46.731 64.934 46.332 64.966C42.789 65.539 38.564 68.148 38.564 77.32 38.564 88.804 33.892 95 31.981 95 25.53 95 23.14 71.931 22.24 63.246 21.879 59.764 21.618 57.246 21.276 55.929 20.765 53.967 19.567 51.963 18.179 49.643 15.473 45.119 12.106 39.489 12.106 31.47V13.495C12.106 11.928 14.228 10.024 16.837 8.417 18.482 23.347 32.726 35.055 50 35.055S81.518 23.347 83.162 8.417C85.771 10.024 87.893 11.927 87.893 13.495V31.469z" fill="#ffffff" data-fill-palette-color="quaternary"></path></svg></g></svg></g><g id="text-0"><path d="M34.163 101.775l-2.02 6.06-26.168-8.721 1.733-5.201c0.897-2.691 2.154-4.598 3.772-5.72 1.618-1.122 3.426-1.35 5.424-0.684v0c1.47 0.49 2.575 1.342 3.315 2.557 0.747 1.217 1.046 2.674 0.898 4.371v0l0.219 0.073c0.988-2.053 2.288-3.482 3.9-4.288 1.612-0.806 3.34-0.902 5.185-0.287v0c2.17 0.723 3.586 2.125 4.25 4.205 0.666 2.074 0.497 4.619-0.508 7.635zM8.618 94.174v0l-0.897 2.691 11.214 3.737 0.884-2.653c1.312-3.938 0.098-6.531-3.643-7.778v0c-3.735-1.245-6.254 0.09-7.558 4.003zM21.002 97.389v0l-1.17 3.512 12.263 4.087 1.171-3.512c1.52-4.562 0.235-7.524-3.856-8.888v0c-4.085-1.361-6.887 0.239-8.408 4.801z" fill="#0080ff" data-fill-palette-color="primary"></path><path d="M41.682 85.579l-23.448-14.528 2.782-4.489c1.469-2.372 3.104-3.903 4.905-4.594 1.801-0.691 3.596-0.482 5.386 0.627v0c1.385 0.858 2.281 1.978 2.689 3.358 0.413 1.384 0.299 2.943-0.341 4.676v0l0.196 0.122c1.202-1.291 2.642-2.067 4.32-2.329 1.674-0.257 3.461-0.124 5.362 0.399v0c1.738 0.493 3.142 0.787 4.211 0.881 1.073 0.089 1.942-0.008 2.606-0.291 0.67-0.279 1.297-0.719 1.882-1.318v0l0.205 0.127-0.853 1.376c-0.608 0.981-1.289 1.679-2.043 2.095-0.749 0.42-1.686 0.588-2.811 0.507-1.125-0.082-2.562-0.385-4.313-0.909v0c-2.7-0.774-4.864-0.923-6.491-0.448-1.622 0.478-2.91 1.487-3.863 3.027v0l-0.122 0.196-0.607-0.376 0.121-0.196c2.229-3.597 1.693-6.418-1.608-8.464v0c-3.261-2.02-5.937-1.343-8.028 2.032v0l-1.366 2.206 22.643 14.03z" fill="#0080ff" data-fill-palette-color="primary"></path><path d="M58.563 62.034l-1.75 2.037-20.922-17.976 1.751-2.037z" fill="#0080ff" data-fill-palette-color="primary"></path><path d="M75.537 32.195l-5.831 4.363-0.567-0.757 7.982-5.972 6.424 8.586c-0.243 1.69-0.861 3.333-1.852 4.93-0.992 1.596-2.349 3.039-4.073 4.328v0c-1.767 1.322-3.613 2.251-5.541 2.789-1.927 0.537-3.838 0.702-5.734 0.496-1.887-0.205-3.662-0.769-5.326-1.694-1.663-0.925-3.108-2.206-4.333-3.844v0c-1.229-1.643-2.051-3.39-2.464-5.242-0.418-1.857-0.46-3.722-0.129-5.595 0.338-1.877 1.038-3.662 2.101-5.354 1.059-1.697 2.472-3.206 4.238-4.528v0c0.757-0.566 1.622-1.134 2.596-1.703 0.972-0.56 1.935-1.058 2.888-1.495 0.958-0.432 1.816-0.735 2.575-0.909v0l1.158 1.885-0.185 0.139c-1.393-0.105-2.824 0.094-4.29 0.596-1.457 0.504-2.849 1.252-4.175 2.245v0c-1.976 1.478-3.377 3.222-4.203 5.23-0.822 2.014-1.046 4.137-0.674 6.371 0.369 2.228 1.357 4.416 2.964 6.564v0c1.603 2.143 3.423 3.708 5.461 4.696 2.038 0.988 4.136 1.37 6.296 1.144 2.164-0.22 4.234-1.069 6.21-2.548v0c1.219-0.912 2.223-1.927 3.011-3.044 0.789-1.118 1.326-2.274 1.614-3.469v0z" fill="#0080ff" data-fill-palette-color="primary"></path><path d="M96.045 36.988l-2.501 0.979-10.057-25.684 2.501-0.98 4.654 11.887 15.409-6.033-4.654-11.887 2.501-0.979 10.057 25.685-2.501 0.979-5.058-12.917-15.409 6.033z" fill="#0080ff" data-fill-palette-color="primary"></path><path d="M132.506 28.379l-2.675 0.24-2.389-26.692c-0.394 0.035-1.199 0.188-2.414 0.458v0l-7.608 1.661-0.178-1.994 22.925-2.052 0.178 1.994-7.782-0.283c-1.243-0.05-2.059-0.058-2.446-0.024v0z" fill="#0080ff" data-fill-palette-color="primary"></path><path d="M159.466 28.601v0l0.75-2.255 0.226 0.051c0.807 1.094 1.785 2.023 2.934 2.788 1.147 0.771 2.336 1.294 3.566 1.569v0c1.741 0.389 3.259 0.222 4.554-0.499 1.295-0.721 2.122-1.89 2.483-3.507v0c0.2-0.897 0.186-1.773-0.042-2.628-0.227-0.861-0.707-1.79-1.44-2.784-0.732-1.002-1.79-2.141-3.175-3.419v0c-0.957-0.887-1.857-1.795-2.7-2.726-0.845-0.924-1.484-1.925-1.917-3.005-0.433-1.079-0.503-2.273-0.21-3.582v0c0.435-1.951 1.493-3.364 3.172-4.239 1.673-0.877 3.665-1.058 5.975-0.543v0c1.021 0.228 2.1 0.582 3.237 1.062 1.13 0.479 1.978 0.957 2.545 1.434v0l-0.678 2.116-0.226-0.05c-1.111-1.918-2.806-3.131-5.084-3.639v0c-1.643-0.367-3.058-0.246-4.244 0.362-1.187 0.608-1.938 1.619-2.254 3.032v0c-0.235 1.054-0.159 2.019 0.23 2.896 0.38 0.882 0.939 1.721 1.675 2.518 0.736 0.796 1.542 1.588 2.418 2.374v0c1.003 0.925 1.969 1.879 2.896 2.862 0.92 0.989 1.617 2.082 2.092 3.281 0.476 1.192 0.54 2.57 0.191 4.134v0c-0.321 1.44-0.937 2.629-1.847 3.567-0.912 0.944-2.045 1.588-3.399 1.931-1.355 0.344-2.84 0.335-4.458-0.025v0c-1.028-0.229-2.204-0.626-3.527-1.19-1.329-0.571-2.577-1.2-3.743-1.886z" fill="#0080ff" data-fill-palette-color="primary"></path><path d="M214.867 21.608l2.547 1.249-12.14 24.768-2.402-1.178 11.134-22.718-0.216-0.106-16.613 12.225-1.093-0.536-2.64-19.252-0.208-0.102-9.406 21.156-2.403-1.177 13.26-24.836 0.713 0.35 3.032 22.02 0.208 0.102z" fill="#0080ff" data-fill-palette-color="primary"></path><path d="M215.284 56.259l-2.101-1.674 17.185-21.576 2.101 1.674z" fill="#0080ff" data-fill-palette-color="primary"></path><path d="M223.044 64.365l20.457-18.503 1.801 1.992-19.874 17.977c0.333 0.368 0.921 0.898 1.765 1.591v0l5.117 4.188-1.492 1.35z" fill="#0080ff" data-fill-palette-color="primary"></path><path d="M241.121 89.662l-6.493-10.26 23.307-14.752 6.429 10.158-1.632 1.033-2.92-6.307c-0.513-1.112-0.881-1.843-1.104-2.194v0l-10.157 6.429c0.183 0.289 0.653 0.956 1.409 2.001v0l3.786 5.247-1.53 0.968-3.123-5.667c-0.621-1.131-1.022-1.841-1.205-2.13v0l-11.161 7.064c0.251 0.397 0.762 1.053 1.533 1.971v0l4.493 5.406z" fill="#0080ff" data-fill-palette-color="primary"></path><path d="M244.123 95.314v0l2.296-0.613 0.082 0.216c-0.47 1.276-0.709 2.603-0.716 3.984-0.014 1.382 0.203 2.663 0.65 3.842v0c0.632 1.668 1.606 2.845 2.919 3.529 1.314 0.685 2.746 0.734 4.295 0.147v0c0.859-0.326 1.583-0.819 2.172-1.479 0.595-0.663 1.107-1.574 1.534-2.734 0.435-1.162 0.805-2.672 1.112-4.531v0c0.215-1.286 0.479-2.538 0.793-3.754 0.307-1.214 0.793-2.298 1.456-3.253 0.664-0.955 1.623-1.67 2.877-2.145v0c1.869-0.709 3.63-0.602 5.285 0.32 1.652 0.915 2.898 2.48 3.738 4.693v0c0.371 0.978 0.668 2.074 0.891 3.288 0.221 1.207 0.288 2.179 0.202 2.914v0l-2.141 0.597-0.082-0.216c0.991-1.982 1.073-4.065 0.246-6.247v0c-0.597-1.574-1.475-2.69-2.636-3.347-1.16-0.657-2.418-0.729-3.772-0.216v0c-1.01 0.383-1.774 0.977-2.293 1.784-0.528 0.803-0.922 1.73-1.182 2.783-0.261 1.053-0.479 2.161-0.655 3.325v0c-0.221 1.346-0.487 2.677-0.799 3.993-0.32 1.312-0.85 2.496-1.59 3.551-0.734 1.053-1.85 1.864-3.349 2.431v0c-1.38 0.523-2.711 0.662-3.995 0.418-1.29-0.243-2.45-0.835-3.482-1.778-1.032-0.943-1.841-2.189-2.429-3.738v0c-0.373-0.985-0.689-2.185-0.945-3.601-0.253-1.425-0.414-2.812-0.482-4.164z" fill="#0080ff" data-fill-palette-color="primary"></path><path d="M10.072 141.258c0-1.781 1.444-3.224 3.224-3.225 1.781 0 3.224 1.444 3.225 3.225 0 1.781-1.444 3.224-3.225 3.224-1.781 0-3.224-1.444-3.224-3.224z" fill="#0080ff" data-fill-palette-color="primary"></path><path d="M263.325 141.258c0-1.781 1.444-3.224 3.225-3.225 1.781 0 3.224 1.444 3.224 3.225 0 1.781-1.444 3.224-3.224 3.224-1.781 0-3.224-1.444-3.225-3.224z" fill="#0080ff" data-fill-palette-color="primary"></path></g><g id="text-1"><path d="M40.746 237.043v0c-1.057-1.105-1.95-2.098-2.679-2.977-0.73-0.88-1.443-1.762-2.139-2.646v0l20.223-19.33c0.964 0.814 1.887 1.634 2.77 2.46 0.883 0.826 1.861 1.802 2.936 2.927v0c1.664 1.74 2.831 3.505 3.502 5.294 0.671 1.789 0.925 3.55 0.763 5.282-0.162 1.723-0.679 3.381-1.549 4.974-0.871 1.593-2.024 3.075-3.459 4.447v0c-1.411 1.348-2.941 2.422-4.591 3.219-1.65 0.798-3.353 1.234-5.109 1.308-1.766 0.074-3.551-0.279-5.355-1.06-1.804-0.781-3.575-2.08-5.313-3.898zM43.244 234.823v0c1.664 1.74 3.363 2.839 5.098 3.295 1.73 0.461 3.452 0.374 5.165-0.26 1.712-0.635 3.352-1.701 4.917-3.198v0c1.396-1.335 2.455-2.848 3.176-4.539 0.721-1.691 0.934-3.434 0.638-5.229-0.291-1.8-1.241-3.54-2.85-5.223v0c-0.538-0.562-1.043-1.062-1.517-1.5-0.474-0.438-0.916-0.832-1.325-1.182v0l-15.714 15.021c0.331 0.463 0.7 0.927 1.107 1.391 0.407 0.465 0.842 0.939 1.305 1.424z" fill="#0080ff" data-fill-palette-color="primary"></path><path d="M63.64 256.618v0c-2.472-1.707-3.884-3.847-4.234-6.421-0.36-2.571 0.444-5.281 2.41-8.128v0c1.189-1.722 2.576-3.034 4.161-3.936 1.589-0.908 3.236-1.352 4.941-1.331 1.711 0.024 3.339 0.57 4.885 1.637v0c1.65 1.139 2.774 2.445 3.37 3.917 0.597 1.472 0.753 3.006 0.466 4.601-0.287 1.595-0.931 3.118-1.933 4.57v0c-0.534 0.773-1.085 1.5-1.654 2.182v0l-12.044-8.317c-0.914 1.749-1.218 3.393-0.912 4.933 0.302 1.545 1.215 2.844 2.738 3.895v0c0.993 0.686 1.957 1.197 2.89 1.532 0.939 0.339 1.888 0.595 2.845 0.767v0l-1.065 3.029c-1.039-0.196-2.135-0.52-3.288-0.974-1.148-0.45-2.34-1.102-3.576-1.956zM65.644 242.952v0l9.428 6.511c1.155-1.672 1.625-3.25 1.412-4.734-0.208-1.48-1.052-2.731-2.531-3.753v0c-1.28-0.884-2.648-1.169-4.105-0.854-1.456 0.315-2.858 1.258-4.204 2.83z" fill="#0080ff" data-fill-palette-color="primary"></path><path d="M80.304 265.599l-3.275-1.523 8.82-18.953 3.164 1.473-1.477 3.174c1.156-0.705 2.425-1.157 3.806-1.358 1.381-0.201 2.8 0.038 4.259 0.717v0c2.134 0.993 3.43 2.38 3.889 4.162 0.458 1.781 0.196 3.727-0.785 5.836v0l-5.751 12.359-3.283-1.528 5.58-11.994c0.631-1.356 0.817-2.597 0.557-3.724-0.26-1.127-0.958-1.955-2.095-2.484v0c-1.119-0.521-2.361-0.618-3.726-0.291-1.365 0.326-2.648 0.858-3.848 1.594v0z" fill="#0080ff" data-fill-palette-color="primary"></path><path d="M107.779 276.008v0c-1.946-0.511-3.314-1.557-4.106-3.138-0.785-1.579-0.864-3.559-0.239-5.939v0l2.493-9.487-3.503-0.92 0.797-3.035 3.581 0.94 2.404-6.181 2.685 0.706-1.674 6.372 5.604 1.473-0.797 3.035-5.605-1.472-2.563 9.759c-0.394 1.498-0.351 2.629 0.128 3.393 0.479 0.764 1.159 1.261 2.041 1.493v0c0.649 0.17 1.292 0.229 1.931 0.174 0.638-0.054 1.238-0.16 1.799-0.317v0l0.237 3.057c-0.601 0.175-1.378 0.297-2.332 0.365-0.961 0.067-1.921-0.026-2.881-0.278z" fill="#0080ff" data-fill-palette-color="primary"></path><path d="M124.992 278.74v0c-1.733-0.196-3.256-0.813-4.569-1.853-1.307-1.039-2.289-2.412-2.946-4.119-0.658-1.701-0.864-3.644-0.616-5.83v0c0.235-2.079 0.865-3.894 1.891-5.446 1.026-1.558 2.331-2.74 3.914-3.546 1.589-0.806 3.344-1.1 5.263-0.883v0c1.2 0.136 2.259 0.465 3.178 0.987 0.926 0.523 1.715 1.132 2.365 1.826v0l0.19-1.679 3.279 0.371-1.78 15.743c-0.114 1.006 0.059 1.691 0.517 2.053 0.458 0.362 0.981 0.577 1.568 0.643v0l-1.077 2.713c-2.559-0.289-3.987-1.504-4.285-3.643v0c-0.71 0.784-1.631 1.469-2.764 2.057-1.126 0.588-2.502 0.79-4.128 0.606zM126.154 275.632v0c1.013 0.115 1.997-0.024 2.952-0.416 0.962-0.391 1.791-0.921 2.488-1.591v0l1.26-11.146c-0.662-0.588-1.41-1.084-2.241-1.488-0.825-0.404-1.717-0.66-2.677-0.769v0c-1.279-0.145-2.443 0.055-3.489 0.598-1.047 0.543-1.916 1.363-2.607 2.459-0.69 1.09-1.123 2.407-1.297 3.954v0c-0.169 1.493-0.039 2.85 0.39 4.073 0.429 1.223 1.1 2.213 2.013 2.971 0.912 0.765 1.982 1.216 3.208 1.355z" fill="#0080ff" data-fill-palette-color="primary"></path><path d="M149.782 279.601v0c-1.233 0.05-2.355-0.139-3.366-0.567-1.011-0.428-1.823-1.154-2.435-2.176-0.619-1.022-0.962-2.36-1.03-4.015v0l-0.949-23.178 3.609-0.148 0.934 22.817c0.059 1.447 0.405 2.504 1.035 3.169 0.632 0.672 1.483 0.986 2.556 0.942v0c0.509-0.021 1.009-0.102 1.5-0.242 0.491-0.141 0.907-0.299 1.249-0.474v0l1.005 2.899c-0.474 0.234-1.062 0.446-1.766 0.636-0.704 0.19-1.484 0.302-2.342 0.337z" fill="#0080ff" data-fill-palette-color="primary"></path><path d="M182.57 272.892v0c-2.337 0.682-4.57 0.725-6.7 0.13-2.129-0.595-3.994-1.78-5.595-3.555-1.609-1.78-2.83-4.1-3.664-6.958v0c-0.802-2.749-1.004-5.334-0.606-7.756 0.393-2.413 1.349-4.49 2.867-6.232 1.518-1.742 3.523-2.976 6.014-3.703v0c1.288-0.376 2.495-0.595 3.622-0.658 1.127-0.063 2.218-0.011 3.273 0.156v0l-0.219 3.417c-0.911-0.153-1.819-0.224-2.723-0.212-0.905 0.012-1.923 0.184-3.057 0.515v0c-1.642 0.479-2.989 1.333-4.041 2.561-1.055 1.223-1.722 2.741-2.004 4.556-0.281 1.814-0.091 3.855 0.57 6.121v0c0.629 2.157 1.547 3.939 2.754 5.348 1.207 1.408 2.591 2.37 4.153 2.886 1.563 0.522 3.179 0.54 4.846 0.054v0c1.262-0.368 2.311-0.842 3.148-1.421 0.837-0.579 1.622-1.241 2.355-1.987v0l2.01 2.726c-0.803 0.793-1.765 1.542-2.886 2.246-1.122 0.704-2.494 1.293-4.117 1.766z" fill="#0080ff" data-fill-palette-color="primary"></path><path d="M202.342 264.569v0c-1.557 0.786-3.169 1.104-4.837 0.954-1.662-0.153-3.236-0.763-4.722-1.832-1.483-1.062-2.72-2.575-3.711-4.539v0c-0.943-1.868-1.41-3.732-1.402-5.591 0.005-1.866 0.448-3.569 1.33-5.111 0.888-1.545 2.194-2.753 3.919-3.623v0c1.078-0.544 2.144-0.849 3.199-0.916 1.061-0.07 2.054 0.007 2.98 0.232v0l-0.762-1.509 2.946-1.487 7.139 14.144c0.456 0.904 0.975 1.382 1.557 1.434 0.582 0.052 1.136-0.055 1.664-0.321v0l0.586 2.859c-2.299 1.16-4.159 0.927-5.581-0.699v0c-0.164 1.044-0.559 2.123-1.184 3.235-0.62 1.109-1.66 2.032-3.121 2.769zM201.61 261.332v0c0.91-0.459 1.657-1.114 2.242-1.965 0.591-0.854 0.994-1.752 1.209-2.695v0l-5.054-10.014c-0.876-0.129-1.773-0.134-2.691-0.016-0.911 0.114-1.798 0.389-2.66 0.824v0c-1.15 0.58-2.013 1.384-2.591 2.412-0.578 1.028-0.856 2.19-0.833 3.485 0.02 1.29 0.38 2.629 1.082 4.018v0c0.677 1.341 1.53 2.406 2.558 3.194 1.029 0.788 2.133 1.249 3.312 1.382 1.182 0.14 2.324-0.069 3.426-0.625z" fill="#0080ff" data-fill-palette-color="primary"></path><path d="M221.076 252.825l-2.924 2.121-12.273-16.922 2.825-2.049 2.67 3.681c-0.237-0.921-0.342-1.865-0.313-2.83 0.029-0.965 0.264-1.898 0.705-2.798 0.441-0.9 1.139-1.696 2.095-2.389v0c0.326-0.236 0.661-0.454 1.004-0.654 0.349-0.204 0.656-0.352 0.921-0.444v0l1.317 3.667c-0.533 0.122-1.082 0.387-1.646 0.796v0c-0.803 0.583-1.404 1.366-1.8 2.35-0.397 0.984-0.482 2.123-0.256 3.417 0.222 1.289 0.869 2.671 1.94 4.147v0z" fill="#0080ff" data-fill-palette-color="primary"></path><path d="M237.293 239.332v0c-2.16 2.089-4.535 3.052-7.127 2.89-2.592-0.152-5.09-1.472-7.496-3.96v0c-1.455-1.504-2.469-3.122-3.042-4.853-0.578-1.736-0.69-3.438-0.334-5.106 0.36-1.673 1.215-3.162 2.565-4.468v0c1.441-1.394 2.942-2.239 4.503-2.535 1.561-0.296 3.095-0.147 4.602 0.446 1.508 0.594 2.875 1.525 4.101 2.794v0c0.653 0.675 1.258 1.359 1.815 2.051v0l-10.521 10.175c1.535 1.24 3.087 1.861 4.657 1.863 1.574 0.007 3.027-0.632 4.358-1.919v0c0.868-0.839 1.558-1.684 2.07-2.533 0.517-0.855 0.954-1.734 1.31-2.639v0l2.762 1.64c-0.396 0.98-0.93 1.991-1.602 3.032-0.667 1.037-1.541 2.078-2.621 3.122zM224.288 234.682v0l8.236-7.965c-1.413-1.461-2.868-2.232-4.365-2.314-1.493-0.087-2.885 0.495-4.176 1.744v0c-1.118 1.082-1.666 2.367-1.644 3.857 0.023 1.49 0.672 3.049 1.949 4.678z" fill="#0080ff" data-fill-palette-color="primary"></path></g></svg></g></svg></g></svg></g></svg></g><defs></defs></svg><rect width="279.72" height="279.72" fill="none" stroke="none" visibility="hidden"></rect></g></svg></g></svg>